<mxfile host="app.diagrams.net" agent="Mozilla/5.0 (Windows NT 10.0; Win64; x64) AppleWebKit/537.36 (KHTML, like Gecko) Chrome/138.0.0.0 Safari/537.36 Edg/138.0.0.0" version="27.0.8">
  <diagram id="prtHgNgQTEPvFCAcTncT" name="Page-1">
    <mxGraphModel dx="2245" dy="794" grid="1" gridSize="10" guides="1" tooltips="1" connect="1" arrows="1" fold="1" page="1" pageScale="1" pageWidth="827" pageHeight="1169" math="0" shadow="0">
      <root>
        <mxCell id="0" />
        <mxCell id="1" parent="0" />
        <mxCell id="_UiihJvo3bzL0BCgovEB-28" style="edgeStyle=orthogonalEdgeStyle;rounded=0;orthogonalLoop=1;jettySize=auto;html=1;exitX=0.5;exitY=1;exitDx=0;exitDy=0;entryX=0.5;entryY=0;entryDx=0;entryDy=0;" edge="1" parent="1" source="_UiihJvo3bzL0BCgovEB-1" target="_UiihJvo3bzL0BCgovEB-5">
          <mxGeometry relative="1" as="geometry" />
        </mxCell>
        <mxCell id="_UiihJvo3bzL0BCgovEB-29" style="edgeStyle=orthogonalEdgeStyle;rounded=0;orthogonalLoop=1;jettySize=auto;html=1;exitX=0.5;exitY=1;exitDx=0;exitDy=0;" edge="1" parent="1" source="_UiihJvo3bzL0BCgovEB-1" target="_UiihJvo3bzL0BCgovEB-4">
          <mxGeometry relative="1" as="geometry" />
        </mxCell>
        <mxCell id="_UiihJvo3bzL0BCgovEB-30" style="edgeStyle=orthogonalEdgeStyle;rounded=0;orthogonalLoop=1;jettySize=auto;html=1;exitX=0.5;exitY=1;exitDx=0;exitDy=0;entryX=0.5;entryY=0;entryDx=0;entryDy=0;" edge="1" parent="1" source="_UiihJvo3bzL0BCgovEB-1" target="_UiihJvo3bzL0BCgovEB-3">
          <mxGeometry relative="1" as="geometry" />
        </mxCell>
        <mxCell id="_UiihJvo3bzL0BCgovEB-31" style="edgeStyle=orthogonalEdgeStyle;rounded=0;orthogonalLoop=1;jettySize=auto;html=1;exitX=0.5;exitY=1;exitDx=0;exitDy=0;entryX=0.5;entryY=0;entryDx=0;entryDy=0;" edge="1" parent="1" source="_UiihJvo3bzL0BCgovEB-1" target="_UiihJvo3bzL0BCgovEB-2">
          <mxGeometry relative="1" as="geometry" />
        </mxCell>
        <mxCell id="_UiihJvo3bzL0BCgovEB-1" value="Agenda Pessoal" style="rounded=0;whiteSpace=wrap;html=1;" vertex="1" parent="1">
          <mxGeometry x="390" y="180" width="120" height="60" as="geometry" />
        </mxCell>
        <mxCell id="_UiihJvo3bzL0BCgovEB-17" style="edgeStyle=orthogonalEdgeStyle;rounded=0;orthogonalLoop=1;jettySize=auto;html=1;exitX=0.5;exitY=1;exitDx=0;exitDy=0;entryX=0.5;entryY=0;entryDx=0;entryDy=0;" edge="1" parent="1" source="_UiihJvo3bzL0BCgovEB-2" target="_UiihJvo3bzL0BCgovEB-6">
          <mxGeometry relative="1" as="geometry" />
        </mxCell>
        <mxCell id="_UiihJvo3bzL0BCgovEB-18" style="edgeStyle=orthogonalEdgeStyle;rounded=0;orthogonalLoop=1;jettySize=auto;html=1;exitX=0.5;exitY=1;exitDx=0;exitDy=0;entryX=0.5;entryY=0;entryDx=0;entryDy=0;" edge="1" parent="1" source="_UiihJvo3bzL0BCgovEB-2" target="_UiihJvo3bzL0BCgovEB-7">
          <mxGeometry relative="1" as="geometry" />
        </mxCell>
        <mxCell id="_UiihJvo3bzL0BCgovEB-2" value="Planejamento do Projeto" style="rounded=0;whiteSpace=wrap;html=1;" vertex="1" parent="1">
          <mxGeometry x="-220" y="310" width="120" height="60" as="geometry" />
        </mxCell>
        <mxCell id="_UiihJvo3bzL0BCgovEB-20" style="edgeStyle=orthogonalEdgeStyle;rounded=0;orthogonalLoop=1;jettySize=auto;html=1;exitX=0.5;exitY=1;exitDx=0;exitDy=0;entryX=1;entryY=0.5;entryDx=0;entryDy=0;" edge="1" parent="1" source="_UiihJvo3bzL0BCgovEB-3" target="_UiihJvo3bzL0BCgovEB-12">
          <mxGeometry relative="1" as="geometry" />
        </mxCell>
        <mxCell id="_UiihJvo3bzL0BCgovEB-21" style="edgeStyle=orthogonalEdgeStyle;rounded=0;orthogonalLoop=1;jettySize=auto;html=1;exitX=0.5;exitY=1;exitDx=0;exitDy=0;entryX=0;entryY=0.5;entryDx=0;entryDy=0;" edge="1" parent="1" source="_UiihJvo3bzL0BCgovEB-3" target="_UiihJvo3bzL0BCgovEB-9">
          <mxGeometry relative="1" as="geometry" />
        </mxCell>
        <mxCell id="_UiihJvo3bzL0BCgovEB-22" style="edgeStyle=orthogonalEdgeStyle;rounded=0;orthogonalLoop=1;jettySize=auto;html=1;exitX=0.5;exitY=1;exitDx=0;exitDy=0;entryX=1;entryY=0.5;entryDx=0;entryDy=0;" edge="1" parent="1" source="_UiihJvo3bzL0BCgovEB-3" target="_UiihJvo3bzL0BCgovEB-10">
          <mxGeometry relative="1" as="geometry" />
        </mxCell>
        <mxCell id="_UiihJvo3bzL0BCgovEB-23" style="edgeStyle=orthogonalEdgeStyle;rounded=0;orthogonalLoop=1;jettySize=auto;html=1;exitX=0.5;exitY=1;exitDx=0;exitDy=0;entryX=0;entryY=0.5;entryDx=0;entryDy=0;" edge="1" parent="1" source="_UiihJvo3bzL0BCgovEB-3" target="_UiihJvo3bzL0BCgovEB-11">
          <mxGeometry relative="1" as="geometry" />
        </mxCell>
        <mxCell id="_UiihJvo3bzL0BCgovEB-3" value="Design DO projeto" style="rounded=0;whiteSpace=wrap;html=1;" vertex="1" parent="1">
          <mxGeometry x="240" y="310" width="120" height="60" as="geometry" />
        </mxCell>
        <mxCell id="_UiihJvo3bzL0BCgovEB-24" style="edgeStyle=orthogonalEdgeStyle;rounded=0;orthogonalLoop=1;jettySize=auto;html=1;exitX=0.5;exitY=1;exitDx=0;exitDy=0;entryX=0.5;entryY=0;entryDx=0;entryDy=0;" edge="1" parent="1" source="_UiihJvo3bzL0BCgovEB-4" target="_UiihJvo3bzL0BCgovEB-13">
          <mxGeometry relative="1" as="geometry" />
        </mxCell>
        <mxCell id="_UiihJvo3bzL0BCgovEB-25" style="edgeStyle=orthogonalEdgeStyle;rounded=0;orthogonalLoop=1;jettySize=auto;html=1;exitX=0.5;exitY=1;exitDx=0;exitDy=0;entryX=0.5;entryY=0;entryDx=0;entryDy=0;" edge="1" parent="1" source="_UiihJvo3bzL0BCgovEB-4" target="_UiihJvo3bzL0BCgovEB-14">
          <mxGeometry relative="1" as="geometry" />
        </mxCell>
        <mxCell id="_UiihJvo3bzL0BCgovEB-4" value="Desenvolvimento&amp;nbsp;" style="rounded=0;whiteSpace=wrap;html=1;" vertex="1" parent="1">
          <mxGeometry x="630" y="310" width="120" height="60" as="geometry" />
        </mxCell>
        <mxCell id="_UiihJvo3bzL0BCgovEB-26" style="edgeStyle=orthogonalEdgeStyle;rounded=0;orthogonalLoop=1;jettySize=auto;html=1;exitX=0.5;exitY=1;exitDx=0;exitDy=0;entryX=0.5;entryY=0;entryDx=0;entryDy=0;" edge="1" parent="1" source="_UiihJvo3bzL0BCgovEB-5" target="_UiihJvo3bzL0BCgovEB-15">
          <mxGeometry relative="1" as="geometry" />
        </mxCell>
        <mxCell id="_UiihJvo3bzL0BCgovEB-27" style="edgeStyle=orthogonalEdgeStyle;rounded=0;orthogonalLoop=1;jettySize=auto;html=1;exitX=0.5;exitY=1;exitDx=0;exitDy=0;entryX=0.5;entryY=0;entryDx=0;entryDy=0;" edge="1" parent="1" source="_UiihJvo3bzL0BCgovEB-5" target="_UiihJvo3bzL0BCgovEB-16">
          <mxGeometry relative="1" as="geometry" />
        </mxCell>
        <mxCell id="_UiihJvo3bzL0BCgovEB-5" value="Testes" style="rounded=0;whiteSpace=wrap;html=1;" vertex="1" parent="1">
          <mxGeometry x="950" y="310" width="120" height="60" as="geometry" />
        </mxCell>
        <mxCell id="_UiihJvo3bzL0BCgovEB-6" value="Levantamento de Requisitos" style="rounded=0;whiteSpace=wrap;html=1;" vertex="1" parent="1">
          <mxGeometry x="-350" y="430" width="120" height="60" as="geometry" />
        </mxCell>
        <mxCell id="_UiihJvo3bzL0BCgovEB-7" value="Documentação" style="rounded=0;whiteSpace=wrap;html=1;" vertex="1" parent="1">
          <mxGeometry x="-220" y="430" width="120" height="60" as="geometry" />
        </mxCell>
        <mxCell id="_UiihJvo3bzL0BCgovEB-8" value="Cronograma" style="rounded=0;whiteSpace=wrap;html=1;" vertex="1" parent="1">
          <mxGeometry x="-90" y="430" width="120" height="60" as="geometry" />
        </mxCell>
        <mxCell id="_UiihJvo3bzL0BCgovEB-9" value="Modelagem de casos de uso" style="rounded=0;whiteSpace=wrap;html=1;" vertex="1" parent="1">
          <mxGeometry x="330" y="440" width="120" height="60" as="geometry" />
        </mxCell>
        <mxCell id="_UiihJvo3bzL0BCgovEB-10" value="Modelagem de diagrama de classes" style="rounded=0;whiteSpace=wrap;html=1;" vertex="1" parent="1">
          <mxGeometry x="150" y="540" width="120" height="60" as="geometry" />
        </mxCell>
        <mxCell id="_UiihJvo3bzL0BCgovEB-11" value="Prototipagem da interface" style="rounded=0;whiteSpace=wrap;html=1;" vertex="1" parent="1">
          <mxGeometry x="330" y="540" width="120" height="60" as="geometry" />
        </mxCell>
        <mxCell id="_UiihJvo3bzL0BCgovEB-12" value="Modelagem e definição da base de dados" style="rounded=0;whiteSpace=wrap;html=1;" vertex="1" parent="1">
          <mxGeometry x="150" y="440" width="120" height="60" as="geometry" />
        </mxCell>
        <mxCell id="_UiihJvo3bzL0BCgovEB-13" value="Codificação das funcionalides" style="rounded=0;whiteSpace=wrap;html=1;" vertex="1" parent="1">
          <mxGeometry x="550" y="420" width="120" height="60" as="geometry" />
        </mxCell>
        <mxCell id="_UiihJvo3bzL0BCgovEB-14" value="codificação da interface" style="rounded=0;whiteSpace=wrap;html=1;" vertex="1" parent="1">
          <mxGeometry x="707" y="420" width="120" height="60" as="geometry" />
        </mxCell>
        <mxCell id="_UiihJvo3bzL0BCgovEB-15" value="Teste de Bugs" style="rounded=0;whiteSpace=wrap;html=1;" vertex="1" parent="1">
          <mxGeometry x="870" y="420" width="120" height="60" as="geometry" />
        </mxCell>
        <mxCell id="_UiihJvo3bzL0BCgovEB-16" value="Teste de Integração" style="rounded=0;whiteSpace=wrap;html=1;" vertex="1" parent="1">
          <mxGeometry x="1020" y="420" width="120" height="60" as="geometry" />
        </mxCell>
        <mxCell id="_UiihJvo3bzL0BCgovEB-19" style="edgeStyle=orthogonalEdgeStyle;rounded=0;orthogonalLoop=1;jettySize=auto;html=1;exitX=0.5;exitY=1;exitDx=0;exitDy=0;entryX=0.608;entryY=0.017;entryDx=0;entryDy=0;entryPerimeter=0;" edge="1" parent="1" source="_UiihJvo3bzL0BCgovEB-2" target="_UiihJvo3bzL0BCgovEB-8">
          <mxGeometry relative="1" as="geometry" />
        </mxCell>
      </root>
    </mxGraphModel>
  </diagram>
</mxfile>
